<svg width="14" height="16" viewBox="0 0 18 18" fill="none" xmlns="http://www.w3.org/2000/svg">
<path fill-rule="evenodd" clip-rule="evenodd" d="M14.4225 3.30002H17.25C17.4489 3.30002 17.6397 3.37904 17.7803 3.51969C17.921 3.66034 18 3.85111 18 4.05002C18 4.24893 17.921 4.4397 17.7803 4.58035C17.6397 4.721 17.4489 4.80002 17.25 4.80002H16.275L15.045 15.8625C14.9772 16.4487 14.6972 16.9897 14.2578 17.3835C13.8184 17.7773 13.25 17.9966 12.66 18H5.34C4.74997 17.9966 4.18161 17.7773 3.74221 17.3835C3.30282 16.9897 3.02279 16.4487 2.955 15.8625L1.7325 4.80002H0.75C0.551088 4.80002 0.360322 4.721 0.21967 4.58035C0.0790178 4.4397 0 4.24893 0 4.05002C0 3.85111 0.0790178 3.66034 0.21967 3.51969C0.360322 3.37904 0.551088 3.30002 0.75 3.30002H3.5775L4.5 1.37252C4.68343 0.960313 4.98655 0.612772 5.37 0.37502C5.75215 0.128424 6.1977 -0.00185484 6.6525 1.99533e-05H11.3475C11.7981 0.00745039 12.2378 0.139654 12.6178 0.381944C12.9978 0.624234 13.3032 0.967124 13.5 1.37252L14.4225 3.30002ZM6.1725 1.64252C6.02514 1.73109 5.90761 1.86168 5.835 2.01752L5.25 3.30002H12.75L12.165 2.01752C12.0924 1.86168 11.9749 1.73109 11.8275 1.64252C11.6857 1.54733 11.5183 1.49762 11.3475 1.50002H6.6525C6.48173 1.49762 6.31429 1.54733 6.1725 1.64252ZM13.26 16.2675C13.4271 16.1221 13.5318 15.918 13.5525 15.6975L14.76 4.80002H3.24L4.4475 15.6975C4.4682 15.918 4.57293 16.1221 4.74 16.2675C4.90451 16.4163 5.11818 16.4991 5.34 16.5H12.66C12.8818 16.4991 13.0955 16.4163 13.26 16.2675ZM7.34999 13.05C7.5489 13.05 7.73967 12.971 7.88032 12.8303C8.02097 12.6897 8.09999 12.4989 8.09999 12.3V8.17502C8.09999 7.97611 8.02097 7.78534 7.88032 7.64469C7.73967 7.50404 7.5489 7.42502 7.34999 7.42502C7.15108 7.42502 6.96031 7.50404 6.81966 7.64469C6.67901 7.78534 6.59999 7.97611 6.59999 8.17502V12.3C6.59999 12.4989 6.67901 12.6897 6.81966 12.8303C6.96031 12.971 7.15108 13.05 7.34999 13.05ZM10.65 13.05C10.8489 13.05 11.0397 12.971 11.1803 12.8303C11.321 12.6897 11.4 12.4989 11.4 12.3V8.17502C11.4 7.97611 11.321 7.78534 11.1803 7.64469C11.0397 7.50404 10.8489 7.42502 10.65 7.42502C10.4511 7.42502 10.2603 7.50404 10.1197 7.64469C9.97903 7.78534 9.90001 7.97611 9.90001 8.17502V12.3C9.90001 12.4989 9.97903 12.6897 10.1197 12.8303C10.2603 12.971 10.4511 13.05 10.65 13.05Z" fill="black"/>
</svg>
