<svg width="14" height="16" viewBox="0 0 14 19" fill="none" xmlns="http://www.w3.org/2000/svg">
<path d="M7 0C6.58579 0 6.25 0.335786 6.25 0.75V12.4219L2.82813 9C2.53041 8.70228 2.04772 8.70228 1.75 9C1.45228 9.29772 1.45228 9.78041 1.75 10.0781L6.46094 14.7891C6.76245 15.0775 7.23755 15.0775 7.53906 14.7891L12.25 10.0781C12.5477 9.78041 12.5477 9.29772 12.25 9C11.9523 8.70228 11.4696 8.70228 11.1719 9L7.75 12.4219V0.75C7.75 0.335786 7.41421 0 7 0ZM1 17.25C0.585787 17.25 0.25 17.5858 0.25 18C0.25 18.4142 0.585786 18.75 1 18.75H13C13.4142 18.75 13.75 18.4142 13.75 18C13.75 17.5858 13.4142 17.25 13 17.25H1Z" fill="#A442F1"/>
</svg>
